<?xml version="1.0" encoding="utf-8" standalone="no"?>
<!DOCTYPE svg PUBLIC "-//W3C//DTD SVG 1.1//EN"
  "http://www.w3.org/Graphics/SVG/1.1/DTD/svg11.dtd">
<!-- Created with matplotlib (https://matplotlib.org/) -->
<svg height="263.68875pt" version="1.1" viewBox="0 0 378.465625 263.68875" width="378.465625pt" xmlns="http://www.w3.org/2000/svg" xmlns:xlink="http://www.w3.org/1999/xlink">
 <metadata>
  <rdf:RDF xmlns:cc="http://creativecommons.org/ns#" xmlns:dc="http://purl.org/dc/elements/1.1/" xmlns:rdf="http://www.w3.org/1999/02/22-rdf-syntax-ns#">
   <cc:Work>
    <dc:type rdf:resource="http://purl.org/dc/dcmitype/StillImage"/>
    <dc:date>2020-10-21T14:08:40.107836</dc:date>
    <dc:format>image/svg+xml</dc:format>
    <dc:creator>
     <cc:Agent>
      <dc:title>Matplotlib v3.3.1, https://matplotlib.org/</dc:title>
     </cc:Agent>
    </dc:creator>
   </cc:Work>
  </rdf:RDF>
 </metadata>
 <defs>
  <style type="text/css">*{stroke-linecap:butt;stroke-linejoin:round;}</style>
 </defs>
 <g id="figure_1">
  <g id="patch_1">
   <path d="M 0 263.68875 
L 378.465625 263.68875 
L 378.465625 0 
L 0 0 
z
" style="fill:none;"/>
  </g>
  <g id="axes_1">
   <g id="patch_2">
    <path d="M 36.465625 239.810625 
L 371.265625 239.810625 
L 371.265625 22.370625 
L 36.465625 22.370625 
z
" style="fill:#ffffff;"/>
   </g>
   <g id="patch_3">
    <path clip-path="url(#pf1deea694a)" d="M 51.683807 239.810625 
L 61.778532 239.810625 
L 61.778532 237.017488 
L 51.683807 237.017488 
z
" style="fill:#1f77b4;opacity:0.5;"/>
   </g>
   <g id="patch_4">
    <path clip-path="url(#pf1deea694a)" d="M 61.778532 239.810625 
L 71.873257 239.810625 
L 71.873257 231.1519 
L 61.778532 231.1519 
z
" style="fill:#1f77b4;opacity:0.5;"/>
   </g>
   <g id="patch_5">
    <path clip-path="url(#pf1deea694a)" d="M 71.873257 239.810625 
L 81.967983 239.810625 
L 81.967983 207.410235 
L 71.873257 207.410235 
z
" style="fill:#1f77b4;opacity:0.5;"/>
   </g>
   <g id="patch_6">
    <path clip-path="url(#pf1deea694a)" d="M 81.967983 239.810625 
L 92.062708 239.810625 
L 92.062708 203.499843 
L 81.967983 203.499843 
z
" style="fill:#1f77b4;opacity:0.5;"/>
   </g>
   <g id="patch_7">
    <path clip-path="url(#pf1deea694a)" d="M 92.062708 239.810625 
L 102.157433 239.810625 
L 102.157433 216.627587 
L 92.062708 216.627587 
z
" style="fill:#1f77b4;opacity:0.5;"/>
   </g>
   <g id="patch_8">
    <path clip-path="url(#pf1deea694a)" d="M 102.157433 239.810625 
L 112.252159 239.810625 
L 112.252159 225.84494 
L 102.157433 225.84494 
z
" style="fill:#1f77b4;opacity:0.5;"/>
   </g>
   <g id="patch_9">
    <path clip-path="url(#pf1deea694a)" d="M 112.252159 239.810625 
L 122.346884 239.810625 
L 122.346884 212.717195 
L 112.252159 212.717195 
z
" style="fill:#1f77b4;opacity:0.5;"/>
   </g>
   <g id="patch_10">
    <path clip-path="url(#pf1deea694a)" d="M 122.346884 239.810625 
L 132.441609 239.810625 
L 132.441609 197.913569 
L 122.346884 197.913569 
z
" style="fill:#1f77b4;opacity:0.5;"/>
   </g>
   <g id="patch_11">
    <path clip-path="url(#pf1deea694a)" d="M 132.441609 239.810625 
L 142.536334 239.810625 
L 142.536334 210.203372 
L 132.441609 210.203372 
z
" style="fill:#1f77b4;opacity:0.5;"/>
   </g>
   <g id="patch_12">
    <path clip-path="url(#pf1deea694a)" d="M 142.536334 239.810625 
L 152.63106 239.810625 
L 152.63106 220.258666 
L 142.536334 220.258666 
z
" style="fill:#1f77b4;opacity:0.5;"/>
   </g>
   <g id="patch_13">
    <path clip-path="url(#pf1deea694a)" d="M 152.63106 239.810625 
L 162.725785 239.810625 
L 162.725785 222.213861 
L 152.63106 222.213861 
z
" style="fill:#1f77b4;opacity:0.5;"/>
   </g>
   <g id="patch_14">
    <path clip-path="url(#pf1deea694a)" d="M 162.725785 239.810625 
L 172.82051 239.810625 
L 172.82051 220.817293 
L 162.725785 220.817293 
z
" style="fill:#1f77b4;opacity:0.5;"/>
   </g>
   <g id="patch_15">
    <path clip-path="url(#pf1deea694a)" d="M 172.82051 239.810625 
L 182.915235 239.810625 
L 182.915235 217.744842 
L 172.82051 217.744842 
z
" style="fill:#1f77b4;opacity:0.5;"/>
   </g>
   <g id="patch_16">
    <path clip-path="url(#pf1deea694a)" d="M 182.915235 239.810625 
L 193.009961 239.810625 
L 193.009961 219.979352 
L 182.915235 219.979352 
z
" style="fill:#1f77b4;opacity:0.5;"/>
   </g>
   <g id="patch_17">
    <path clip-path="url(#pf1deea694a)" d="M 193.009961 239.810625 
L 203.104686 239.810625 
L 203.104686 226.124253 
L 193.009961 226.124253 
z
" style="fill:#1f77b4;opacity:0.5;"/>
   </g>
   <g id="patch_18">
    <path clip-path="url(#pf1deea694a)" d="M 203.104686 239.810625 
L 213.199411 239.810625 
L 213.199411 226.962194 
L 203.104686 226.962194 
z
" style="fill:#1f77b4;opacity:0.5;"/>
   </g>
   <g id="patch_19">
    <path clip-path="url(#pf1deea694a)" d="M 213.199411 239.810625 
L 223.294137 239.810625 
L 223.294137 225.286312 
L 213.199411 225.286312 
z
" style="fill:#1f77b4;opacity:0.5;"/>
   </g>
   <g id="patch_20">
    <path clip-path="url(#pf1deea694a)" d="M 223.294137 239.810625 
L 233.388862 239.810625 
L 233.388862 221.096607 
L 223.294137 221.096607 
z
" style="fill:#1f77b4;opacity:0.5;"/>
   </g>
   <g id="patch_21">
    <path clip-path="url(#pf1deea694a)" d="M 233.388862 239.810625 
L 243.483587 239.810625 
L 243.483587 216.06896 
L 233.388862 216.06896 
z
" style="fill:#1f77b4;opacity:0.5;"/>
   </g>
   <g id="patch_22">
    <path clip-path="url(#pf1deea694a)" d="M 243.483587 239.810625 
L 253.578312 239.810625 
L 253.578312 213.83445 
L 243.483587 213.83445 
z
" style="fill:#1f77b4;opacity:0.5;"/>
   </g>
   <g id="patch_23">
    <path clip-path="url(#pf1deea694a)" d="M 253.578312 239.810625 
L 263.673038 239.810625 
L 263.673038 208.248176 
L 253.578312 208.248176 
z
" style="fill:#1f77b4;opacity:0.5;"/>
   </g>
   <g id="patch_24">
    <path clip-path="url(#pf1deea694a)" d="M 263.673038 239.810625 
L 273.767763 239.810625 
L 273.767763 206.851608 
L 263.673038 206.851608 
z
" style="fill:#1f77b4;opacity:0.5;"/>
   </g>
   <g id="patch_25">
    <path clip-path="url(#pf1deea694a)" d="M 273.767763 239.810625 
L 283.862488 239.810625 
L 283.862488 217.186215 
L 273.767763 217.186215 
z
" style="fill:#1f77b4;opacity:0.5;"/>
   </g>
   <g id="patch_26">
    <path clip-path="url(#pf1deea694a)" d="M 283.862488 239.810625 
L 293.957214 239.810625 
L 293.957214 225.84494 
L 283.862488 225.84494 
z
" style="fill:#1f77b4;opacity:0.5;"/>
   </g>
   <g id="patch_27">
    <path clip-path="url(#pf1deea694a)" d="M 293.957214 239.810625 
L 304.051939 239.810625 
L 304.051939 224.727685 
L 293.957214 224.727685 
z
" style="fill:#1f77b4;opacity:0.5;"/>
   </g>
   <g id="patch_28">
    <path clip-path="url(#pf1deea694a)" d="M 304.051939 239.810625 
L 314.146664 239.810625 
L 314.146664 231.989841 
L 304.051939 231.989841 
z
" style="fill:#1f77b4;opacity:0.5;"/>
   </g>
   <g id="patch_29">
    <path clip-path="url(#pf1deea694a)" d="M 314.146664 239.810625 
L 324.241389 239.810625 
L 324.241389 235.062292 
L 314.146664 235.062292 
z
" style="fill:#1f77b4;opacity:0.5;"/>
   </g>
   <g id="patch_30">
    <path clip-path="url(#pf1deea694a)" d="M 324.241389 239.810625 
L 334.336115 239.810625 
L 334.336115 236.738174 
L 324.241389 236.738174 
z
" style="fill:#1f77b4;opacity:0.5;"/>
   </g>
   <g id="patch_31">
    <path clip-path="url(#pf1deea694a)" d="M 334.336115 239.810625 
L 344.43084 239.810625 
L 344.43084 237.855429 
L 334.336115 237.855429 
z
" style="fill:#1f77b4;opacity:0.5;"/>
   </g>
   <g id="patch_32">
    <path clip-path="url(#pf1deea694a)" d="M 344.43084 239.810625 
L 354.525565 239.810625 
L 354.525565 238.414056 
L 344.43084 238.414056 
z
" style="fill:#1f77b4;opacity:0.5;"/>
   </g>
   <g id="matplotlib.axis_1">
    <g id="xtick_1">
     <g id="line2d_1">
      <path clip-path="url(#pf1deea694a)" d="M 84.482346 239.810625 
L 84.482346 22.370625 
" style="fill:none;stroke:#b0b0b0;stroke-linecap:square;stroke-width:0.8;"/>
     </g>
     <g id="line2d_2">
      <defs>
       <path d="M 0 0 
L 0 3.5 
" id="m8ccb36a430" style="stroke:#000000;stroke-width:0.8;"/>
      </defs>
      <g>
       <use style="stroke:#000000;stroke-width:0.8;" x="84.482346" xlink:href="#m8ccb36a430" y="239.810625"/>
      </g>
     </g>
     <g id="text_1">
      <!-- 0 -->
      <g transform="translate(81.301096 254.409063)scale(0.1 -0.1)">
       <defs>
        <path d="M 31.78125 66.40625 
Q 24.171875 66.40625 20.328125 58.90625 
Q 16.5 51.421875 16.5 36.375 
Q 16.5 21.390625 20.328125 13.890625 
Q 24.171875 6.390625 31.78125 6.390625 
Q 39.453125 6.390625 43.28125 13.890625 
Q 47.125 21.390625 47.125 36.375 
Q 47.125 51.421875 43.28125 58.90625 
Q 39.453125 66.40625 31.78125 66.40625 
z
M 31.78125 74.21875 
Q 44.046875 74.21875 50.515625 64.515625 
Q 56.984375 54.828125 56.984375 36.375 
Q 56.984375 17.96875 50.515625 8.265625 
Q 44.046875 -1.421875 31.78125 -1.421875 
Q 19.53125 -1.421875 13.0625 8.265625 
Q 6.59375 17.96875 6.59375 36.375 
Q 6.59375 54.828125 13.0625 64.515625 
Q 19.53125 74.21875 31.78125 74.21875 
z
" id="DejaVuSans-48"/>
       </defs>
       <use xlink:href="#DejaVuSans-48"/>
      </g>
     </g>
    </g>
    <g id="xtick_2">
     <g id="line2d_3">
      <path clip-path="url(#pf1deea694a)" d="M 138.795365 239.810625 
L 138.795365 22.370625 
" style="fill:none;stroke:#b0b0b0;stroke-linecap:square;stroke-width:0.8;"/>
     </g>
     <g id="line2d_4">
      <g>
       <use style="stroke:#000000;stroke-width:0.8;" x="138.795365" xlink:href="#m8ccb36a430" y="239.810625"/>
      </g>
     </g>
     <g id="text_2">
      <!-- 5 -->
      <g transform="translate(135.614115 254.409063)scale(0.1 -0.1)">
       <defs>
        <path d="M 10.796875 72.90625 
L 49.515625 72.90625 
L 49.515625 64.59375 
L 19.828125 64.59375 
L 19.828125 46.734375 
Q 21.96875 47.46875 24.109375 47.828125 
Q 26.265625 48.1875 28.421875 48.1875 
Q 40.625 48.1875 47.75 41.5 
Q 54.890625 34.8125 54.890625 23.390625 
Q 54.890625 11.625 47.5625 5.09375 
Q 40.234375 -1.421875 26.90625 -1.421875 
Q 22.3125 -1.421875 17.546875 -0.640625 
Q 12.796875 0.140625 7.71875 1.703125 
L 7.71875 11.625 
Q 12.109375 9.234375 16.796875 8.0625 
Q 21.484375 6.890625 26.703125 6.890625 
Q 35.15625 6.890625 40.078125 11.328125 
Q 45.015625 15.765625 45.015625 23.390625 
Q 45.015625 31 40.078125 35.4375 
Q 35.15625 39.890625 26.703125 39.890625 
Q 22.75 39.890625 18.8125 39.015625 
Q 14.890625 38.140625 10.796875 36.28125 
z
" id="DejaVuSans-53"/>
       </defs>
       <use xlink:href="#DejaVuSans-53"/>
      </g>
     </g>
    </g>
    <g id="xtick_3">
     <g id="line2d_5">
      <path clip-path="url(#pf1deea694a)" d="M 193.108385 239.810625 
L 193.108385 22.370625 
" style="fill:none;stroke:#b0b0b0;stroke-linecap:square;stroke-width:0.8;"/>
     </g>
     <g id="line2d_6">
      <g>
       <use style="stroke:#000000;stroke-width:0.8;" x="193.108385" xlink:href="#m8ccb36a430" y="239.810625"/>
      </g>
     </g>
     <g id="text_3">
      <!-- 10 -->
      <g transform="translate(186.745885 254.409063)scale(0.1 -0.1)">
       <defs>
        <path d="M 12.40625 8.296875 
L 28.515625 8.296875 
L 28.515625 63.921875 
L 10.984375 60.40625 
L 10.984375 69.390625 
L 28.421875 72.90625 
L 38.28125 72.90625 
L 38.28125 8.296875 
L 54.390625 8.296875 
L 54.390625 0 
L 12.40625 0 
z
" id="DejaVuSans-49"/>
       </defs>
       <use xlink:href="#DejaVuSans-49"/>
       <use x="63.623047" xlink:href="#DejaVuSans-48"/>
      </g>
     </g>
    </g>
    <g id="xtick_4">
     <g id="line2d_7">
      <path clip-path="url(#pf1deea694a)" d="M 247.421404 239.810625 
L 247.421404 22.370625 
" style="fill:none;stroke:#b0b0b0;stroke-linecap:square;stroke-width:0.8;"/>
     </g>
     <g id="line2d_8">
      <g>
       <use style="stroke:#000000;stroke-width:0.8;" x="247.421404" xlink:href="#m8ccb36a430" y="239.810625"/>
      </g>
     </g>
     <g id="text_4">
      <!-- 15 -->
      <g transform="translate(241.058904 254.409063)scale(0.1 -0.1)">
       <use xlink:href="#DejaVuSans-49"/>
       <use x="63.623047" xlink:href="#DejaVuSans-53"/>
      </g>
     </g>
    </g>
    <g id="xtick_5">
     <g id="line2d_9">
      <path clip-path="url(#pf1deea694a)" d="M 301.734424 239.810625 
L 301.734424 22.370625 
" style="fill:none;stroke:#b0b0b0;stroke-linecap:square;stroke-width:0.8;"/>
     </g>
     <g id="line2d_10">
      <g>
       <use style="stroke:#000000;stroke-width:0.8;" x="301.734424" xlink:href="#m8ccb36a430" y="239.810625"/>
      </g>
     </g>
     <g id="text_5">
      <!-- 20 -->
      <g transform="translate(295.371924 254.409063)scale(0.1 -0.1)">
       <defs>
        <path d="M 19.1875 8.296875 
L 53.609375 8.296875 
L 53.609375 0 
L 7.328125 0 
L 7.328125 8.296875 
Q 12.9375 14.109375 22.625 23.890625 
Q 32.328125 33.6875 34.8125 36.53125 
Q 39.546875 41.84375 41.421875 45.53125 
Q 43.3125 49.21875 43.3125 52.78125 
Q 43.3125 58.59375 39.234375 62.25 
Q 35.15625 65.921875 28.609375 65.921875 
Q 23.96875 65.921875 18.8125 64.3125 
Q 13.671875 62.703125 7.8125 59.421875 
L 7.8125 69.390625 
Q 13.765625 71.78125 18.9375 73 
Q 24.125 74.21875 28.421875 74.21875 
Q 39.75 74.21875 46.484375 68.546875 
Q 53.21875 62.890625 53.21875 53.421875 
Q 53.21875 48.921875 51.53125 44.890625 
Q 49.859375 40.875 45.40625 35.40625 
Q 44.1875 33.984375 37.640625 27.21875 
Q 31.109375 20.453125 19.1875 8.296875 
z
" id="DejaVuSans-50"/>
       </defs>
       <use xlink:href="#DejaVuSans-50"/>
       <use x="63.623047" xlink:href="#DejaVuSans-48"/>
      </g>
     </g>
    </g>
    <g id="xtick_6">
     <g id="line2d_11">
      <path clip-path="url(#pf1deea694a)" d="M 356.047443 239.810625 
L 356.047443 22.370625 
" style="fill:none;stroke:#b0b0b0;stroke-linecap:square;stroke-width:0.8;"/>
     </g>
     <g id="line2d_12">
      <g>
       <use style="stroke:#000000;stroke-width:0.8;" x="356.047443" xlink:href="#m8ccb36a430" y="239.810625"/>
      </g>
     </g>
     <g id="text_6">
      <!-- 25 -->
      <g transform="translate(349.684943 254.409063)scale(0.1 -0.1)">
       <use xlink:href="#DejaVuSans-50"/>
       <use x="63.623047" xlink:href="#DejaVuSans-53"/>
      </g>
     </g>
    </g>
   </g>
   <g id="matplotlib.axis_2">
    <g id="ytick_1">
     <g id="line2d_13">
      <path clip-path="url(#pf1deea694a)" d="M 36.465625 239.810625 
L 371.265625 239.810625 
" style="fill:none;stroke:#b0b0b0;stroke-linecap:square;stroke-width:0.8;"/>
     </g>
     <g id="line2d_14">
      <defs>
       <path d="M 0 0 
L -3.5 0 
" id="m429295b2ae" style="stroke:#000000;stroke-width:0.8;"/>
      </defs>
      <g>
       <use style="stroke:#000000;stroke-width:0.8;" x="36.465625" xlink:href="#m429295b2ae" y="239.810625"/>
      </g>
     </g>
     <g id="text_7">
      <!-- 0.00 -->
      <g transform="translate(7.2 243.609844)scale(0.1 -0.1)">
       <defs>
        <path d="M 10.6875 12.40625 
L 21 12.40625 
L 21 0 
L 10.6875 0 
z
" id="DejaVuSans-46"/>
       </defs>
       <use xlink:href="#DejaVuSans-48"/>
       <use x="63.623047" xlink:href="#DejaVuSans-46"/>
       <use x="95.410156" xlink:href="#DejaVuSans-48"/>
       <use x="159.033203" xlink:href="#DejaVuSans-48"/>
      </g>
     </g>
    </g>
    <g id="ytick_2">
     <g id="line2d_15">
      <path clip-path="url(#pf1deea694a)" d="M 36.465625 213.853726 
L 371.265625 213.853726 
" style="fill:none;stroke:#b0b0b0;stroke-linecap:square;stroke-width:0.8;"/>
     </g>
     <g id="line2d_16">
      <g>
       <use style="stroke:#000000;stroke-width:0.8;" x="36.465625" xlink:href="#m429295b2ae" y="213.853726"/>
      </g>
     </g>
     <g id="text_8">
      <!-- 0.05 -->
      <g transform="translate(7.2 217.652945)scale(0.1 -0.1)">
       <use xlink:href="#DejaVuSans-48"/>
       <use x="63.623047" xlink:href="#DejaVuSans-46"/>
       <use x="95.410156" xlink:href="#DejaVuSans-48"/>
       <use x="159.033203" xlink:href="#DejaVuSans-53"/>
      </g>
     </g>
    </g>
    <g id="ytick_3">
     <g id="line2d_17">
      <path clip-path="url(#pf1deea694a)" d="M 36.465625 187.896827 
L 371.265625 187.896827 
" style="fill:none;stroke:#b0b0b0;stroke-linecap:square;stroke-width:0.8;"/>
     </g>
     <g id="line2d_18">
      <g>
       <use style="stroke:#000000;stroke-width:0.8;" x="36.465625" xlink:href="#m429295b2ae" y="187.896827"/>
      </g>
     </g>
     <g id="text_9">
      <!-- 0.10 -->
      <g transform="translate(7.2 191.696045)scale(0.1 -0.1)">
       <use xlink:href="#DejaVuSans-48"/>
       <use x="63.623047" xlink:href="#DejaVuSans-46"/>
       <use x="95.410156" xlink:href="#DejaVuSans-49"/>
       <use x="159.033203" xlink:href="#DejaVuSans-48"/>
      </g>
     </g>
    </g>
    <g id="ytick_4">
     <g id="line2d_19">
      <path clip-path="url(#pf1deea694a)" d="M 36.465625 161.939927 
L 371.265625 161.939927 
" style="fill:none;stroke:#b0b0b0;stroke-linecap:square;stroke-width:0.8;"/>
     </g>
     <g id="line2d_20">
      <g>
       <use style="stroke:#000000;stroke-width:0.8;" x="36.465625" xlink:href="#m429295b2ae" y="161.939927"/>
      </g>
     </g>
     <g id="text_10">
      <!-- 0.15 -->
      <g transform="translate(7.2 165.739146)scale(0.1 -0.1)">
       <use xlink:href="#DejaVuSans-48"/>
       <use x="63.623047" xlink:href="#DejaVuSans-46"/>
       <use x="95.410156" xlink:href="#DejaVuSans-49"/>
       <use x="159.033203" xlink:href="#DejaVuSans-53"/>
      </g>
     </g>
    </g>
    <g id="ytick_5">
     <g id="line2d_21">
      <path clip-path="url(#pf1deea694a)" d="M 36.465625 135.983028 
L 371.265625 135.983028 
" style="fill:none;stroke:#b0b0b0;stroke-linecap:square;stroke-width:0.8;"/>
     </g>
     <g id="line2d_22">
      <g>
       <use style="stroke:#000000;stroke-width:0.8;" x="36.465625" xlink:href="#m429295b2ae" y="135.983028"/>
      </g>
     </g>
     <g id="text_11">
      <!-- 0.20 -->
      <g transform="translate(7.2 139.782247)scale(0.1 -0.1)">
       <use xlink:href="#DejaVuSans-48"/>
       <use x="63.623047" xlink:href="#DejaVuSans-46"/>
       <use x="95.410156" xlink:href="#DejaVuSans-50"/>
       <use x="159.033203" xlink:href="#DejaVuSans-48"/>
      </g>
     </g>
    </g>
    <g id="ytick_6">
     <g id="line2d_23">
      <path clip-path="url(#pf1deea694a)" d="M 36.465625 110.026129 
L 371.265625 110.026129 
" style="fill:none;stroke:#b0b0b0;stroke-linecap:square;stroke-width:0.8;"/>
     </g>
     <g id="line2d_24">
      <g>
       <use style="stroke:#000000;stroke-width:0.8;" x="36.465625" xlink:href="#m429295b2ae" y="110.026129"/>
      </g>
     </g>
     <g id="text_12">
      <!-- 0.25 -->
      <g transform="translate(7.2 113.825348)scale(0.1 -0.1)">
       <use xlink:href="#DejaVuSans-48"/>
       <use x="63.623047" xlink:href="#DejaVuSans-46"/>
       <use x="95.410156" xlink:href="#DejaVuSans-50"/>
       <use x="159.033203" xlink:href="#DejaVuSans-53"/>
      </g>
     </g>
    </g>
    <g id="ytick_7">
     <g id="line2d_25">
      <path clip-path="url(#pf1deea694a)" d="M 36.465625 84.06923 
L 371.265625 84.06923 
" style="fill:none;stroke:#b0b0b0;stroke-linecap:square;stroke-width:0.8;"/>
     </g>
     <g id="line2d_26">
      <g>
       <use style="stroke:#000000;stroke-width:0.8;" x="36.465625" xlink:href="#m429295b2ae" y="84.06923"/>
      </g>
     </g>
     <g id="text_13">
      <!-- 0.30 -->
      <g transform="translate(7.2 87.868449)scale(0.1 -0.1)">
       <defs>
        <path d="M 40.578125 39.3125 
Q 47.65625 37.796875 51.625 33 
Q 55.609375 28.21875 55.609375 21.1875 
Q 55.609375 10.40625 48.1875 4.484375 
Q 40.765625 -1.421875 27.09375 -1.421875 
Q 22.515625 -1.421875 17.65625 -0.515625 
Q 12.796875 0.390625 7.625 2.203125 
L 7.625 11.71875 
Q 11.71875 9.328125 16.59375 8.109375 
Q 21.484375 6.890625 26.8125 6.890625 
Q 36.078125 6.890625 40.9375 10.546875 
Q 45.796875 14.203125 45.796875 21.1875 
Q 45.796875 27.640625 41.28125 31.265625 
Q 36.765625 34.90625 28.71875 34.90625 
L 20.21875 34.90625 
L 20.21875 43.015625 
L 29.109375 43.015625 
Q 36.375 43.015625 40.234375 45.921875 
Q 44.09375 48.828125 44.09375 54.296875 
Q 44.09375 59.90625 40.109375 62.90625 
Q 36.140625 65.921875 28.71875 65.921875 
Q 24.65625 65.921875 20.015625 65.03125 
Q 15.375 64.15625 9.8125 62.3125 
L 9.8125 71.09375 
Q 15.4375 72.65625 20.34375 73.4375 
Q 25.25 74.21875 29.59375 74.21875 
Q 40.828125 74.21875 47.359375 69.109375 
Q 53.90625 64.015625 53.90625 55.328125 
Q 53.90625 49.265625 50.4375 45.09375 
Q 46.96875 40.921875 40.578125 39.3125 
z
" id="DejaVuSans-51"/>
       </defs>
       <use xlink:href="#DejaVuSans-48"/>
       <use x="63.623047" xlink:href="#DejaVuSans-46"/>
       <use x="95.410156" xlink:href="#DejaVuSans-51"/>
       <use x="159.033203" xlink:href="#DejaVuSans-48"/>
      </g>
     </g>
    </g>
    <g id="ytick_8">
     <g id="line2d_27">
      <path clip-path="url(#pf1deea694a)" d="M 36.465625 58.112331 
L 371.265625 58.112331 
" style="fill:none;stroke:#b0b0b0;stroke-linecap:square;stroke-width:0.8;"/>
     </g>
     <g id="line2d_28">
      <g>
       <use style="stroke:#000000;stroke-width:0.8;" x="36.465625" xlink:href="#m429295b2ae" y="58.112331"/>
      </g>
     </g>
     <g id="text_14">
      <!-- 0.35 -->
      <g transform="translate(7.2 61.911549)scale(0.1 -0.1)">
       <use xlink:href="#DejaVuSans-48"/>
       <use x="63.623047" xlink:href="#DejaVuSans-46"/>
       <use x="95.410156" xlink:href="#DejaVuSans-51"/>
       <use x="159.033203" xlink:href="#DejaVuSans-53"/>
      </g>
     </g>
    </g>
    <g id="ytick_9">
     <g id="line2d_29">
      <path clip-path="url(#pf1deea694a)" d="M 36.465625 32.155431 
L 371.265625 32.155431 
" style="fill:none;stroke:#b0b0b0;stroke-linecap:square;stroke-width:0.8;"/>
     </g>
     <g id="line2d_30">
      <g>
       <use style="stroke:#000000;stroke-width:0.8;" x="36.465625" xlink:href="#m429295b2ae" y="32.155431"/>
      </g>
     </g>
     <g id="text_15">
      <!-- 0.40 -->
      <g transform="translate(7.2 35.95465)scale(0.1 -0.1)">
       <defs>
        <path d="M 37.796875 64.3125 
L 12.890625 25.390625 
L 37.796875 25.390625 
z
M 35.203125 72.90625 
L 47.609375 72.90625 
L 47.609375 25.390625 
L 58.015625 25.390625 
L 58.015625 17.1875 
L 47.609375 17.1875 
L 47.609375 0 
L 37.796875 0 
L 37.796875 17.1875 
L 4.890625 17.1875 
L 4.890625 26.703125 
z
" id="DejaVuSans-52"/>
       </defs>
       <use xlink:href="#DejaVuSans-48"/>
       <use x="63.623047" xlink:href="#DejaVuSans-46"/>
       <use x="95.410156" xlink:href="#DejaVuSans-52"/>
       <use x="159.033203" xlink:href="#DejaVuSans-48"/>
      </g>
     </g>
    </g>
   </g>
   <g id="line2d_31">
    <path clip-path="url(#pf1deea694a)" d="M 51.894534 237.509884 
L 53.113584 236.609164 
L 54.332634 235.411572 
L 55.551684 233.841641 
L 56.770733 231.812797 
L 57.989783 229.228473 
L 59.208833 225.984314 
L 60.427882 221.971687 
L 61.646932 217.082583 
L 62.865982 211.215934 
L 64.085032 204.285212 
L 65.304081 196.227013 
L 66.523131 187.01017 
L 68.351706 171.047796 
L 70.18028 152.761762 
L 72.61838 125.742275 
L 76.885054 77.639543 
L 78.713628 59.943625 
L 79.932678 50.096434 
L 81.151728 42.214467 
L 81.761253 39.101684 
L 82.370778 36.580759 
L 82.980303 34.675076 
L 83.589827 33.40244 
L 84.199352 32.774805 
L 84.808877 32.798084 
L 85.418402 33.472059 
L 86.027927 34.79038 
L 86.637452 36.740668 
L 87.246977 39.304708 
L 88.466026 46.173782 
L 89.685076 55.14794 
L 90.904126 65.910197 
L 92.7327 84.5979 
L 95.780325 119.22648 
L 98.827949 153.220612 
L 100.656524 171.456391 
L 102.485098 187.359316 
L 103.704148 196.534681 
L 104.923198 204.551858 
L 106.142248 211.443323 
L 107.361297 217.273459 
L 108.580347 222.129457 
L 109.799397 226.112759 
L 111.018446 229.331494 
L 112.237496 231.894221 
L 113.456546 233.905066 
L 114.675596 235.460273 
L 115.894645 236.64603 
L 117.113695 237.537401 
L 118.332745 238.198136 
L 120.161319 238.86977 
L 121.989894 239.276993 
L 124.427994 239.570894 
L 128.085143 239.744946 
L 136.008966 239.807932 
L 245.113917 239.810625 
L 356.047443 239.810625 
L 356.047443 239.810625 
" style="fill:none;stroke:#ff0000;stroke-linecap:square;stroke-width:1.5;"/>
   </g>
   <g id="line2d_32">
    <path clip-path="url(#pf1deea694a)" d="M 51.894534 237.200793 
L 53.113584 236.221488 
L 54.332634 234.934102 
L 55.551684 233.264666 
L 56.770733 231.12944 
L 57.989783 228.436252 
L 59.208833 225.086866 
L 60.427882 220.980523 
L 61.646932 216.018711 
L 62.865982 210.111146 
L 64.085032 203.182808 
L 65.304081 195.181745 
L 66.523131 186.087201 
L 68.351706 170.447623 
L 70.18028 152.661454 
L 72.61838 126.55928 
L 76.885054 80.385231 
L 78.713628 63.413415 
L 79.932678 53.940488 
L 81.151728 46.315391 
L 82.370778 40.801187 
L 82.980303 38.899539 
L 83.589827 37.592621 
L 84.199352 36.892229 
L 84.808877 36.804701 
L 85.418402 37.330832 
L 86.027927 38.465856 
L 86.637452 40.199519 
L 87.246977 42.516235 
L 87.856502 45.395317 
L 89.075551 52.734242 
L 90.294601 61.962122 
L 91.513651 72.76919 
L 93.342225 91.173308 
L 100.656524 168.843986 
L 102.485098 184.702736 
L 104.313673 198.167386 
L 105.532723 205.780771 
L 106.751772 212.336846 
L 107.970822 217.896735 
L 109.189872 222.54178 
L 110.408922 226.365964 
L 111.627971 229.469229 
L 112.847021 231.951915 
L 114.066071 233.910434 
L 115.285121 235.434159 
L 116.50417 236.603441 
L 117.72322 237.4886 
L 118.94227 238.14969 
L 120.770844 238.82837 
L 122.599419 239.245341 
L 125.037518 239.551253 
L 128.694668 239.737008 
L 136.008966 239.806348 
L 208.542425 239.810625 
L 356.047443 239.810625 
L 356.047443 239.810625 
" style="fill:none;stroke:#0000ff;stroke-linecap:square;stroke-width:1.5;"/>
   </g>
   <g id="line2d_33">
    <path clip-path="url(#pf1deea694a)" d="M 51.894534 239.810625 
L 85.418402 239.712919 
L 89.075551 239.465823 
L 91.513651 239.060178 
L 93.342225 238.50963 
L 94.561275 237.962455 
L 95.780325 237.218006 
L 96.999375 236.219209 
L 98.218424 234.897891 
L 99.437474 233.174554 
L 100.656524 230.958874 
L 101.875573 228.151184 
L 103.094623 224.64513 
L 104.313673 220.331662 
L 105.532723 215.104456 
L 106.751772 208.866704 
L 107.970822 201.539112 
L 109.189872 193.068735 
L 110.408922 183.438129 
L 112.237496 166.889532 
L 114.066071 148.11843 
L 117.113695 113.690962 
L 120.161319 79.468387 
L 121.989894 61.491434 
L 123.208944 51.390282 
L 124.427994 43.208663 
L 125.647043 37.239165 
L 126.256568 35.155631 
L 126.866093 33.700644 
L 127.475618 32.887853 
L 128.085143 32.724911 
L 128.694668 33.213353 
L 129.304192 34.348578 
L 129.913717 36.119912 
L 130.523242 38.510782 
L 131.132767 41.498974 
L 132.351817 49.152383 
L 133.570867 58.804492 
L 134.789916 70.118631 
L 136.618491 89.37252 
L 143.323264 163.902604 
L 145.151839 180.851248 
L 146.980414 195.295111 
L 148.199463 203.476614 
L 149.418513 210.525597 
L 150.637563 216.502449 
L 151.856613 221.491645 
L 153.075662 225.593078 
L 154.294712 228.914342 
L 155.513762 231.564262 
L 156.732812 233.647842 
L 157.951861 235.262613 
L 159.170911 236.496287 
L 160.389961 237.425549 
L 161.60901 238.115748 
L 163.437585 238.819026 
L 165.26616 239.246692 
L 167.704259 239.556368 
L 171.361408 239.74059 
L 178.675707 239.806843 
L 258.523464 239.810625 
L 356.047443 239.810625 
L 356.047443 239.810625 
" style="fill:none;stroke:#ff0000;stroke-linecap:square;stroke-width:1.5;"/>
   </g>
   <g id="line2d_34">
    <path clip-path="url(#pf1deea694a)" d="M 51.894534 239.810625 
L 142.104215 239.703277 
L 153.075662 239.468859 
L 160.389961 239.116421 
L 166.485209 238.605235 
L 171.361408 237.98325 
L 175.628082 237.228899 
L 179.285232 236.386204 
L 182.942381 235.325673 
L 186.59953 234.010703 
L 189.647154 232.694074 
L 192.694779 231.155104 
L 195.742403 229.375612 
L 198.790027 227.340552 
L 201.837652 225.039241 
L 204.885276 222.466613 
L 207.9329 219.624447 
L 211.59005 215.87239 
L 215.247199 211.780576 
L 219.513873 206.650344 
L 225.609122 198.894466 
L 233.532945 188.796776 
L 237.190094 184.452412 
L 240.237718 181.121968 
L 243.285343 178.136576 
L 245.723442 176.044805 
L 248.161542 174.25255 
L 250.599641 172.788654 
L 252.428216 171.920838 
L 254.25679 171.259416 
L 256.085365 170.810604 
L 257.91394 170.578645 
L 259.742514 170.565738 
L 261.571089 170.772007 
L 263.399663 171.195494 
L 265.228238 171.832194 
L 267.056813 172.676119 
L 268.885387 173.719387 
L 271.323487 175.403586 
L 273.761586 177.397556 
L 276.199686 179.669645 
L 279.24731 182.84698 
L 282.904459 187.055694 
L 287.171133 192.341282 
L 301.79973 210.81614 
L 305.456879 214.977853 
L 309.114028 218.810169 
L 312.161653 221.723948 
L 315.209277 224.369995 
L 318.256901 226.74448 
L 321.304526 228.850738 
L 324.35215 230.698055 
L 327.399774 232.300419 
L 330.447399 233.675279 
L 334.104548 235.052715 
L 337.761697 236.167391 
L 341.418846 237.056069 
L 345.68552 237.854405 
L 350.561719 238.515317 
L 356.047443 239.017673 
L 356.047443 239.017673 
" style="fill:none;stroke:#0000ff;stroke-linecap:square;stroke-width:1.5;"/>
   </g>
   <g id="line2d_35">
    <path clip-path="url(#pf1deea694a)" d="M 51.894534 239.810597 
L 90.904126 239.70215 
L 98.218424 239.453881 
L 103.094623 239.069837 
L 106.751772 238.570862 
L 109.799397 237.947214 
L 112.237496 237.26537 
L 114.675596 236.377542 
L 117.113695 235.237979 
L 119.551795 233.796379 
L 121.380369 232.484876 
L 123.208944 230.950372 
L 125.037518 229.170088 
L 126.866093 227.1223 
L 128.694668 224.78722 
L 130.523242 222.147978 
L 132.351817 219.191677 
L 134.789916 214.744058 
L 137.228016 209.71845 
L 139.666115 204.137378 
L 142.104215 198.050474 
L 145.151839 189.853821 
L 150.028038 175.932754 
L 154.904237 162.145217 
L 157.342336 155.775325 
L 159.780436 150.020984 
L 161.60901 146.224786 
L 163.437585 142.956668 
L 165.26616 140.282019 
L 166.485209 138.856123 
L 167.704259 137.731709 
L 168.923309 136.919243 
L 170.142359 136.426339 
L 171.361408 136.257631 
L 172.580458 136.414712 
L 173.799508 136.896101 
L 175.018558 137.697267 
L 176.237607 138.810703 
L 177.456657 140.226043 
L 178.675707 141.93022 
L 180.504281 144.993378 
L 182.332856 148.609069 
L 184.161431 152.706148 
L 186.59953 158.781929 
L 189.647154 167.083718 
L 201.228127 199.504925 
L 203.666226 205.480348 
L 206.104326 210.935857 
L 208.542425 215.828368 
L 210.980525 220.141187 
L 212.809099 222.998256 
L 214.637674 225.541767 
L 216.466249 227.785964 
L 218.294823 229.74873 
L 220.123398 231.450553 
L 221.951972 232.913571 
L 224.390072 234.532466 
L 226.828171 235.821922 
L 229.266271 236.834088 
L 231.70437 237.617208 
L 234.751995 238.339357 
L 237.799619 238.84298 
L 241.456768 239.240376 
L 246.332967 239.541026 
L 253.647265 239.730885 
L 267.056813 239.804258 
L 356.047443 239.810625 
L 356.047443 239.810625 
" style="fill:none;stroke:#ff0000;stroke-linecap:square;stroke-width:1.5;"/>
   </g>
   <g id="line2d_36">
    <path clip-path="url(#pf1deea694a)" d="M 51.894534 239.810625 
L 81.761253 239.707697 
L 85.418402 239.44902 
L 87.856502 239.025957 
L 89.685076 238.453352 
L 90.904126 237.885389 
L 92.123176 237.113934 
L 93.342225 236.080625 
L 94.561275 234.715947 
L 95.780325 232.93907 
L 96.999375 230.658464 
L 98.218424 227.773503 
L 99.437474 224.177276 
L 100.656524 219.760748 
L 101.875573 214.41834 
L 103.094623 208.054888 
L 104.313673 200.593752 
L 105.532723 191.985723 
L 107.361297 176.907796 
L 109.189872 159.387755 
L 111.627971 133.02446 
L 117.113695 71.707378 
L 118.332745 60.202519 
L 119.551795 50.311976 
L 120.770844 42.37903 
L 121.380369 39.238394 
L 121.989894 36.688354 
L 122.599419 34.752552 
L 123.208944 33.449072 
L 123.818469 32.790154 
L 124.427994 32.782006 
L 125.037518 33.424705 
L 125.647043 34.712195 
L 126.256568 36.632386 
L 126.866093 39.167336 
L 128.085143 45.982276 
L 129.304192 54.90918 
L 130.523242 65.632477 
L 132.351817 84.279209 
L 135.399441 118.88714 
L 138.447066 152.911002 
L 140.27564 171.180736 
L 142.104215 187.123804 
L 143.932789 200.493298 
L 145.151839 207.968533 
L 146.370889 214.345281 
L 147.589939 219.699894 
L 148.808988 224.127359 
L 150.028038 227.733167 
L 151.247088 230.626349 
L 152.466137 232.913873 
L 153.685187 234.69646 
L 154.904237 236.065769 
L 156.123287 237.102767 
L 157.342336 237.877112 
L 158.561386 238.447303 
L 160.389961 239.022273 
L 162.218535 239.367491 
L 164.656635 239.613922 
L 168.923309 239.768562 
L 179.285232 239.810103 
L 356.047443 239.810625 
L 356.047443 239.810625 
" style="fill:none;stroke:#0000ff;stroke-linecap:square;stroke-width:1.5;"/>
   </g>
   <g id="line2d_37">
    <path clip-path="url(#pf1deea694a)" d="M 51.894534 239.810625 
L 140.885165 239.705701 
L 152.466137 239.456253 
L 159.780436 239.09441 
L 165.875685 238.571875 
L 170.751883 237.938233 
L 175.018558 237.171824 
L 178.675707 236.317581 
L 182.332856 235.24467 
L 185.990005 233.916902 
L 189.03763 232.589694 
L 192.085254 231.040652 
L 195.132878 229.252057 
L 198.180503 227.209381 
L 201.228127 224.902486 
L 204.275751 222.326855 
L 207.323376 219.484792 
L 210.980525 215.737612 
L 214.637674 211.656443 
L 218.904348 206.546374 
L 224.999597 198.833486 
L 232.92342 188.811765 
L 236.580569 184.506816 
L 239.628194 181.209541 
L 242.675818 178.256397 
L 245.113917 176.188985 
L 247.552017 174.419189 
L 249.990116 172.975319 
L 251.818691 172.120639 
L 253.647265 171.470543 
L 255.47584 171.031103 
L 257.304415 170.806445 
L 259.132989 170.798685 
L 260.961564 171.007897 
L 262.790138 171.432109 
L 264.618713 172.067336 
L 266.447288 172.907645 
L 268.275862 173.945239 
L 270.713962 175.618878 
L 273.152061 177.599194 
L 275.590161 179.854958 
L 278.637785 183.008869 
L 282.294934 187.186395 
L 286.561608 192.433645 
L 301.190205 210.794337 
L 304.847354 214.937157 
L 308.504504 218.755336 
L 312.161653 222.210473 
L 315.209277 224.797623 
L 318.256901 227.115987 
L 321.304526 229.169814 
L 324.35215 230.969027 
L 327.399774 232.527992 
L 330.447399 233.864312 
L 334.104548 235.201855 
L 337.761697 236.283241 
L 341.418846 237.144682 
L 345.68552 237.917982 
L 350.561719 238.557726 
L 356.047443 239.043711 
L 356.047443 239.043711 
" style="fill:none;stroke:#ff0000;stroke-linecap:square;stroke-width:1.5;"/>
   </g>
   <g id="line2d_38">
    <path clip-path="url(#pf1deea694a)" d="M 51.894534 239.80212 
L 70.789805 239.666835 
L 78.713628 239.407031 
L 84.199352 239.028756 
L 88.466026 238.541725 
L 92.123176 237.928828 
L 95.780325 237.073387 
L 98.827949 236.125026 
L 101.875573 234.914344 
L 104.313673 233.724371 
L 106.751772 232.30999 
L 109.189872 230.646096 
L 111.627971 228.709004 
L 114.066071 226.477658 
L 116.50417 223.934979 
L 118.94227 221.069307 
L 121.380369 217.875858 
L 123.818469 214.358147 
L 126.866093 209.525955 
L 129.913717 204.257451 
L 133.570867 197.469749 
L 139.666115 185.541885 
L 144.542314 176.135419 
L 147.589939 170.664187 
L 150.028038 166.661934 
L 152.466137 163.090825 
L 154.294712 160.746131 
L 156.123287 158.723087 
L 157.951861 157.049703 
L 159.780436 155.749516 
L 160.999486 155.099419 
L 162.218535 154.62768 
L 163.437585 154.337324 
L 164.656635 154.230219 
L 165.875685 154.307055 
L 167.094734 154.567338 
L 168.313784 155.009391 
L 169.532834 155.630378 
L 171.361408 156.888379 
L 173.189983 158.521864 
L 175.018558 160.507822 
L 176.847132 162.818703 
L 179.285232 166.350477 
L 181.723331 170.32058 
L 184.770955 175.762332 
L 189.03763 183.948182 
L 197.570978 200.544178 
L 201.228127 207.121851 
L 204.275751 212.165079 
L 207.323376 216.742385 
L 209.761475 220.04443 
L 212.199574 223.01888 
L 214.637674 225.667911 
L 217.075773 228.001061 
L 219.513873 230.033772 
L 221.951972 231.785931 
L 224.390072 233.280492 
L 226.828171 234.542213 
L 229.875796 235.830714 
L 232.92342 236.844225 
L 235.971044 237.629157 
L 239.628194 238.328562 
L 243.894868 238.889369 
L 248.771067 239.292558 
L 254.866315 239.570255 
L 264.009188 239.741943 
L 282.294934 239.806724 
L 356.047443 239.810625 
L 356.047443 239.810625 
" style="fill:none;stroke:#0000ff;stroke-linecap:square;stroke-width:1.5;"/>
   </g>
   <g id="patch_33">
    <path d="M 36.465625 239.810625 
L 36.465625 22.370625 
" style="fill:none;stroke:#000000;stroke-linecap:square;stroke-linejoin:miter;stroke-width:0.8;"/>
   </g>
   <g id="patch_34">
    <path d="M 371.265625 239.810625 
L 371.265625 22.370625 
" style="fill:none;stroke:#000000;stroke-linecap:square;stroke-linejoin:miter;stroke-width:0.8;"/>
   </g>
   <g id="patch_35">
    <path d="M 36.465625 239.810625 
L 371.265625 239.810625 
" style="fill:none;stroke:#000000;stroke-linecap:square;stroke-linejoin:miter;stroke-width:0.8;"/>
   </g>
   <g id="patch_36">
    <path d="M 36.465625 22.370625 
L 371.265625 22.370625 
" style="fill:none;stroke:#000000;stroke-linecap:square;stroke-linejoin:miter;stroke-width:0.8;"/>
   </g>
   <g id="text_16">
    <!-- Mixture of 4 Gaussians | 2000 Iterations -->
    <g transform="translate(83.731563 16.370625)scale(0.12 -0.12)">
     <defs>
      <path d="M 9.8125 72.90625 
L 24.515625 72.90625 
L 43.109375 23.296875 
L 61.8125 72.90625 
L 76.515625 72.90625 
L 76.515625 0 
L 66.890625 0 
L 66.890625 64.015625 
L 48.09375 14.015625 
L 38.1875 14.015625 
L 19.390625 64.015625 
L 19.390625 0 
L 9.8125 0 
z
" id="DejaVuSans-77"/>
      <path d="M 9.421875 54.6875 
L 18.40625 54.6875 
L 18.40625 0 
L 9.421875 0 
z
M 9.421875 75.984375 
L 18.40625 75.984375 
L 18.40625 64.59375 
L 9.421875 64.59375 
z
" id="DejaVuSans-105"/>
      <path d="M 54.890625 54.6875 
L 35.109375 28.078125 
L 55.90625 0 
L 45.3125 0 
L 29.390625 21.484375 
L 13.484375 0 
L 2.875 0 
L 24.125 28.609375 
L 4.6875 54.6875 
L 15.28125 54.6875 
L 29.78125 35.203125 
L 44.28125 54.6875 
z
" id="DejaVuSans-120"/>
      <path d="M 18.3125 70.21875 
L 18.3125 54.6875 
L 36.8125 54.6875 
L 36.8125 47.703125 
L 18.3125 47.703125 
L 18.3125 18.015625 
Q 18.3125 11.328125 20.140625 9.421875 
Q 21.96875 7.515625 27.59375 7.515625 
L 36.8125 7.515625 
L 36.8125 0 
L 27.59375 0 
Q 17.1875 0 13.234375 3.875 
Q 9.28125 7.765625 9.28125 18.015625 
L 9.28125 47.703125 
L 2.6875 47.703125 
L 2.6875 54.6875 
L 9.28125 54.6875 
L 9.28125 70.21875 
z
" id="DejaVuSans-116"/>
      <path d="M 8.5 21.578125 
L 8.5 54.6875 
L 17.484375 54.6875 
L 17.484375 21.921875 
Q 17.484375 14.15625 20.5 10.265625 
Q 23.53125 6.390625 29.59375 6.390625 
Q 36.859375 6.390625 41.078125 11.03125 
Q 45.3125 15.671875 45.3125 23.6875 
L 45.3125 54.6875 
L 54.296875 54.6875 
L 54.296875 0 
L 45.3125 0 
L 45.3125 8.40625 
Q 42.046875 3.421875 37.71875 1 
Q 33.40625 -1.421875 27.6875 -1.421875 
Q 18.265625 -1.421875 13.375 4.4375 
Q 8.5 10.296875 8.5 21.578125 
z
M 31.109375 56 
z
" id="DejaVuSans-117"/>
      <path d="M 41.109375 46.296875 
Q 39.59375 47.171875 37.8125 47.578125 
Q 36.03125 48 33.890625 48 
Q 26.265625 48 22.1875 43.046875 
Q 18.109375 38.09375 18.109375 28.8125 
L 18.109375 0 
L 9.078125 0 
L 9.078125 54.6875 
L 18.109375 54.6875 
L 18.109375 46.1875 
Q 20.953125 51.171875 25.484375 53.578125 
Q 30.03125 56 36.53125 56 
Q 37.453125 56 38.578125 55.875 
Q 39.703125 55.765625 41.0625 55.515625 
z
" id="DejaVuSans-114"/>
      <path d="M 56.203125 29.59375 
L 56.203125 25.203125 
L 14.890625 25.203125 
Q 15.484375 15.921875 20.484375 11.0625 
Q 25.484375 6.203125 34.421875 6.203125 
Q 39.59375 6.203125 44.453125 7.46875 
Q 49.3125 8.734375 54.109375 11.28125 
L 54.109375 2.78125 
Q 49.265625 0.734375 44.1875 -0.34375 
Q 39.109375 -1.421875 33.890625 -1.421875 
Q 20.796875 -1.421875 13.15625 6.1875 
Q 5.515625 13.8125 5.515625 26.8125 
Q 5.515625 40.234375 12.765625 48.109375 
Q 20.015625 56 32.328125 56 
Q 43.359375 56 49.78125 48.890625 
Q 56.203125 41.796875 56.203125 29.59375 
z
M 47.21875 32.234375 
Q 47.125 39.59375 43.09375 43.984375 
Q 39.0625 48.390625 32.421875 48.390625 
Q 24.90625 48.390625 20.390625 44.140625 
Q 15.875 39.890625 15.1875 32.171875 
z
" id="DejaVuSans-101"/>
      <path id="DejaVuSans-32"/>
      <path d="M 30.609375 48.390625 
Q 23.390625 48.390625 19.1875 42.75 
Q 14.984375 37.109375 14.984375 27.296875 
Q 14.984375 17.484375 19.15625 11.84375 
Q 23.34375 6.203125 30.609375 6.203125 
Q 37.796875 6.203125 41.984375 11.859375 
Q 46.1875 17.53125 46.1875 27.296875 
Q 46.1875 37.015625 41.984375 42.703125 
Q 37.796875 48.390625 30.609375 48.390625 
z
M 30.609375 56 
Q 42.328125 56 49.015625 48.375 
Q 55.71875 40.765625 55.71875 27.296875 
Q 55.71875 13.875 49.015625 6.21875 
Q 42.328125 -1.421875 30.609375 -1.421875 
Q 18.84375 -1.421875 12.171875 6.21875 
Q 5.515625 13.875 5.515625 27.296875 
Q 5.515625 40.765625 12.171875 48.375 
Q 18.84375 56 30.609375 56 
z
" id="DejaVuSans-111"/>
      <path d="M 37.109375 75.984375 
L 37.109375 68.5 
L 28.515625 68.5 
Q 23.6875 68.5 21.796875 66.546875 
Q 19.921875 64.59375 19.921875 59.515625 
L 19.921875 54.6875 
L 34.71875 54.6875 
L 34.71875 47.703125 
L 19.921875 47.703125 
L 19.921875 0 
L 10.890625 0 
L 10.890625 47.703125 
L 2.296875 47.703125 
L 2.296875 54.6875 
L 10.890625 54.6875 
L 10.890625 58.5 
Q 10.890625 67.625 15.140625 71.796875 
Q 19.390625 75.984375 28.609375 75.984375 
z
" id="DejaVuSans-102"/>
      <path d="M 59.515625 10.40625 
L 59.515625 29.984375 
L 43.40625 29.984375 
L 43.40625 38.09375 
L 69.28125 38.09375 
L 69.28125 6.78125 
Q 63.578125 2.734375 56.6875 0.65625 
Q 49.8125 -1.421875 42 -1.421875 
Q 24.90625 -1.421875 15.25 8.5625 
Q 5.609375 18.5625 5.609375 36.375 
Q 5.609375 54.25 15.25 64.234375 
Q 24.90625 74.21875 42 74.21875 
Q 49.125 74.21875 55.546875 72.453125 
Q 61.96875 70.703125 67.390625 67.28125 
L 67.390625 56.78125 
Q 61.921875 61.421875 55.765625 63.765625 
Q 49.609375 66.109375 42.828125 66.109375 
Q 29.4375 66.109375 22.71875 58.640625 
Q 16.015625 51.171875 16.015625 36.375 
Q 16.015625 21.625 22.71875 14.15625 
Q 29.4375 6.6875 42.828125 6.6875 
Q 48.046875 6.6875 52.140625 7.59375 
Q 56.25 8.5 59.515625 10.40625 
z
" id="DejaVuSans-71"/>
      <path d="M 34.28125 27.484375 
Q 23.390625 27.484375 19.1875 25 
Q 14.984375 22.515625 14.984375 16.5 
Q 14.984375 11.71875 18.140625 8.90625 
Q 21.296875 6.109375 26.703125 6.109375 
Q 34.1875 6.109375 38.703125 11.40625 
Q 43.21875 16.703125 43.21875 25.484375 
L 43.21875 27.484375 
z
M 52.203125 31.203125 
L 52.203125 0 
L 43.21875 0 
L 43.21875 8.296875 
Q 40.140625 3.328125 35.546875 0.953125 
Q 30.953125 -1.421875 24.3125 -1.421875 
Q 15.921875 -1.421875 10.953125 3.296875 
Q 6 8.015625 6 15.921875 
Q 6 25.140625 12.171875 29.828125 
Q 18.359375 34.515625 30.609375 34.515625 
L 43.21875 34.515625 
L 43.21875 35.40625 
Q 43.21875 41.609375 39.140625 45 
Q 35.0625 48.390625 27.6875 48.390625 
Q 23 48.390625 18.546875 47.265625 
Q 14.109375 46.140625 10.015625 43.890625 
L 10.015625 52.203125 
Q 14.9375 54.109375 19.578125 55.046875 
Q 24.21875 56 28.609375 56 
Q 40.484375 56 46.34375 49.84375 
Q 52.203125 43.703125 52.203125 31.203125 
z
" id="DejaVuSans-97"/>
      <path d="M 44.28125 53.078125 
L 44.28125 44.578125 
Q 40.484375 46.53125 36.375 47.5 
Q 32.28125 48.484375 27.875 48.484375 
Q 21.1875 48.484375 17.84375 46.4375 
Q 14.5 44.390625 14.5 40.28125 
Q 14.5 37.15625 16.890625 35.375 
Q 19.28125 33.59375 26.515625 31.984375 
L 29.59375 31.296875 
Q 39.15625 29.25 43.1875 25.515625 
Q 47.21875 21.78125 47.21875 15.09375 
Q 47.21875 7.46875 41.1875 3.015625 
Q 35.15625 -1.421875 24.609375 -1.421875 
Q 20.21875 -1.421875 15.453125 -0.5625 
Q 10.6875 0.296875 5.421875 2 
L 5.421875 11.28125 
Q 10.40625 8.6875 15.234375 7.390625 
Q 20.0625 6.109375 24.8125 6.109375 
Q 31.15625 6.109375 34.5625 8.28125 
Q 37.984375 10.453125 37.984375 14.40625 
Q 37.984375 18.0625 35.515625 20.015625 
Q 33.0625 21.96875 24.703125 23.78125 
L 21.578125 24.515625 
Q 13.234375 26.265625 9.515625 29.90625 
Q 5.8125 33.546875 5.8125 39.890625 
Q 5.8125 47.609375 11.28125 51.796875 
Q 16.75 56 26.8125 56 
Q 31.78125 56 36.171875 55.265625 
Q 40.578125 54.546875 44.28125 53.078125 
z
" id="DejaVuSans-115"/>
      <path d="M 54.890625 33.015625 
L 54.890625 0 
L 45.90625 0 
L 45.90625 32.71875 
Q 45.90625 40.484375 42.875 44.328125 
Q 39.84375 48.1875 33.796875 48.1875 
Q 26.515625 48.1875 22.3125 43.546875 
Q 18.109375 38.921875 18.109375 30.90625 
L 18.109375 0 
L 9.078125 0 
L 9.078125 54.6875 
L 18.109375 54.6875 
L 18.109375 46.1875 
Q 21.34375 51.125 25.703125 53.5625 
Q 30.078125 56 35.796875 56 
Q 45.21875 56 50.046875 50.171875 
Q 54.890625 44.34375 54.890625 33.015625 
z
" id="DejaVuSans-110"/>
      <path d="M 21 76.421875 
L 21 -23.578125 
L 12.703125 -23.578125 
L 12.703125 76.421875 
z
" id="DejaVuSans-124"/>
      <path d="M 9.8125 72.90625 
L 19.671875 72.90625 
L 19.671875 0 
L 9.8125 0 
z
" id="DejaVuSans-73"/>
     </defs>
     <use xlink:href="#DejaVuSans-77"/>
     <use x="86.279297" xlink:href="#DejaVuSans-105"/>
     <use x="114.0625" xlink:href="#DejaVuSans-120"/>
     <use x="173.242188" xlink:href="#DejaVuSans-116"/>
     <use x="212.451172" xlink:href="#DejaVuSans-117"/>
     <use x="275.830078" xlink:href="#DejaVuSans-114"/>
     <use x="314.693359" xlink:href="#DejaVuSans-101"/>
     <use x="376.216797" xlink:href="#DejaVuSans-32"/>
     <use x="408.003906" xlink:href="#DejaVuSans-111"/>
     <use x="469.185547" xlink:href="#DejaVuSans-102"/>
     <use x="504.390625" xlink:href="#DejaVuSans-32"/>
     <use x="536.177734" xlink:href="#DejaVuSans-52"/>
     <use x="599.800781" xlink:href="#DejaVuSans-32"/>
     <use x="631.587891" xlink:href="#DejaVuSans-71"/>
     <use x="709.078125" xlink:href="#DejaVuSans-97"/>
     <use x="770.357422" xlink:href="#DejaVuSans-117"/>
     <use x="833.736328" xlink:href="#DejaVuSans-115"/>
     <use x="885.835938" xlink:href="#DejaVuSans-115"/>
     <use x="937.935547" xlink:href="#DejaVuSans-105"/>
     <use x="965.71875" xlink:href="#DejaVuSans-97"/>
     <use x="1026.998047" xlink:href="#DejaVuSans-110"/>
     <use x="1090.376953" xlink:href="#DejaVuSans-115"/>
     <use x="1142.476562" xlink:href="#DejaVuSans-32"/>
     <use x="1174.263672" xlink:href="#DejaVuSans-124"/>
     <use x="1207.955078" xlink:href="#DejaVuSans-32"/>
     <use x="1239.742188" xlink:href="#DejaVuSans-50"/>
     <use x="1303.365234" xlink:href="#DejaVuSans-48"/>
     <use x="1366.988281" xlink:href="#DejaVuSans-48"/>
     <use x="1430.611328" xlink:href="#DejaVuSans-48"/>
     <use x="1494.234375" xlink:href="#DejaVuSans-32"/>
     <use x="1526.021484" xlink:href="#DejaVuSans-73"/>
     <use x="1555.513672" xlink:href="#DejaVuSans-116"/>
     <use x="1594.722656" xlink:href="#DejaVuSans-101"/>
     <use x="1656.246094" xlink:href="#DejaVuSans-114"/>
     <use x="1697.359375" xlink:href="#DejaVuSans-97"/>
     <use x="1758.638672" xlink:href="#DejaVuSans-116"/>
     <use x="1797.847656" xlink:href="#DejaVuSans-105"/>
     <use x="1825.630859" xlink:href="#DejaVuSans-111"/>
     <use x="1886.8125" xlink:href="#DejaVuSans-110"/>
     <use x="1950.191406" xlink:href="#DejaVuSans-115"/>
    </g>
   </g>
   <g id="legend_1">
    <g id="patch_37">
     <path d="M 300.9375 59.726875 
L 364.265625 59.726875 
Q 366.265625 59.726875 366.265625 57.726875 
L 366.265625 29.370625 
Q 366.265625 27.370625 364.265625 27.370625 
L 300.9375 27.370625 
Q 298.9375 27.370625 298.9375 29.370625 
L 298.9375 57.726875 
Q 298.9375 59.726875 300.9375 59.726875 
z
" style="fill:#ffffff;opacity:0.8;stroke:#cccccc;stroke-linejoin:miter;"/>
    </g>
    <g id="line2d_39">
     <path d="M 302.9375 35.469063 
L 322.9375 35.469063 
" style="fill:none;stroke:#0000ff;stroke-linecap:square;stroke-width:4;"/>
    </g>
    <g id="line2d_40"/>
    <g id="text_17">
     <!-- Fitted -->
     <g transform="translate(330.9375 38.969063)scale(0.1 -0.1)">
      <defs>
       <path d="M 9.8125 72.90625 
L 51.703125 72.90625 
L 51.703125 64.59375 
L 19.671875 64.59375 
L 19.671875 43.109375 
L 48.578125 43.109375 
L 48.578125 34.8125 
L 19.671875 34.8125 
L 19.671875 0 
L 9.8125 0 
z
" id="DejaVuSans-70"/>
       <path d="M 45.40625 46.390625 
L 45.40625 75.984375 
L 54.390625 75.984375 
L 54.390625 0 
L 45.40625 0 
L 45.40625 8.203125 
Q 42.578125 3.328125 38.25 0.953125 
Q 33.9375 -1.421875 27.875 -1.421875 
Q 17.96875 -1.421875 11.734375 6.484375 
Q 5.515625 14.40625 5.515625 27.296875 
Q 5.515625 40.1875 11.734375 48.09375 
Q 17.96875 56 27.875 56 
Q 33.9375 56 38.25 53.625 
Q 42.578125 51.265625 45.40625 46.390625 
z
M 14.796875 27.296875 
Q 14.796875 17.390625 18.875 11.75 
Q 22.953125 6.109375 30.078125 6.109375 
Q 37.203125 6.109375 41.296875 11.75 
Q 45.40625 17.390625 45.40625 27.296875 
Q 45.40625 37.203125 41.296875 42.84375 
Q 37.203125 48.484375 30.078125 48.484375 
Q 22.953125 48.484375 18.875 42.84375 
Q 14.796875 37.203125 14.796875 27.296875 
z
" id="DejaVuSans-100"/>
      </defs>
      <use xlink:href="#DejaVuSans-70"/>
      <use x="50.269531" xlink:href="#DejaVuSans-105"/>
      <use x="78.052734" xlink:href="#DejaVuSans-116"/>
      <use x="117.261719" xlink:href="#DejaVuSans-116"/>
      <use x="156.470703" xlink:href="#DejaVuSans-101"/>
      <use x="217.994141" xlink:href="#DejaVuSans-100"/>
     </g>
    </g>
    <g id="line2d_41">
     <path d="M 302.9375 50.147188 
L 322.9375 50.147188 
" style="fill:none;stroke:#ff0000;stroke-linecap:square;stroke-width:4;"/>
    </g>
    <g id="line2d_42"/>
    <g id="text_18">
     <!-- Actual -->
     <g transform="translate(330.9375 53.647188)scale(0.1 -0.1)">
      <defs>
       <path d="M 34.1875 63.1875 
L 20.796875 26.90625 
L 47.609375 26.90625 
z
M 28.609375 72.90625 
L 39.796875 72.90625 
L 67.578125 0 
L 57.328125 0 
L 50.6875 18.703125 
L 17.828125 18.703125 
L 11.1875 0 
L 0.78125 0 
z
" id="DejaVuSans-65"/>
       <path d="M 48.78125 52.59375 
L 48.78125 44.1875 
Q 44.96875 46.296875 41.140625 47.34375 
Q 37.3125 48.390625 33.40625 48.390625 
Q 24.65625 48.390625 19.8125 42.84375 
Q 14.984375 37.3125 14.984375 27.296875 
Q 14.984375 17.28125 19.8125 11.734375 
Q 24.65625 6.203125 33.40625 6.203125 
Q 37.3125 6.203125 41.140625 7.25 
Q 44.96875 8.296875 48.78125 10.40625 
L 48.78125 2.09375 
Q 45.015625 0.34375 40.984375 -0.53125 
Q 36.96875 -1.421875 32.421875 -1.421875 
Q 20.0625 -1.421875 12.78125 6.34375 
Q 5.515625 14.109375 5.515625 27.296875 
Q 5.515625 40.671875 12.859375 48.328125 
Q 20.21875 56 33.015625 56 
Q 37.15625 56 41.109375 55.140625 
Q 45.0625 54.296875 48.78125 52.59375 
z
" id="DejaVuSans-99"/>
       <path d="M 9.421875 75.984375 
L 18.40625 75.984375 
L 18.40625 0 
L 9.421875 0 
z
" id="DejaVuSans-108"/>
      </defs>
      <use xlink:href="#DejaVuSans-65"/>
      <use x="66.658203" xlink:href="#DejaVuSans-99"/>
      <use x="121.638672" xlink:href="#DejaVuSans-116"/>
      <use x="160.847656" xlink:href="#DejaVuSans-117"/>
      <use x="224.226562" xlink:href="#DejaVuSans-97"/>
      <use x="285.505859" xlink:href="#DejaVuSans-108"/>
     </g>
    </g>
   </g>
  </g>
 </g>
 <defs>
  <clipPath id="pf1deea694a">
   <rect height="217.44" width="334.8" x="36.465625" y="22.370625"/>
  </clipPath>
 </defs>
</svg>
